<svg width="275" height="46" viewBox="0 0 275 46" fill="none" xmlns="http://www.w3.org/2000/svg">
<g clip-path="url(#clip0_23_992)">
<path d="M268.541 0.381083L262.083 0.359339V7.27261L268.541 7.23828V45.6304H275V0.381083H268.541ZM254.07 11.3798C254.07 5.34202 251.219 0 244.501 0C239.114 0 234.809 4.44368 234.809 9.85322V13.4111H241.267V9.71818C241.267 7.62051 242.529 6.47497 244.434 6.47497C247.601 6.47497 247.601 9.20206 247.601 11.492C247.601 13.9719 247.601 15.2399 246.463 17.4623L234.809 39.5136V45.6189H254.07V39.1325H242.416L251.917 20.7616C253.946 16.9004 254.07 15.756 254.07 11.3798ZM193.288 20.5933H189.614V6.48642H192.973C197.729 6.48642 198.484 8.96632 198.484 13.545C198.484 18.0459 197.797 20.5933 193.288 20.5933ZM204.954 13.6686C204.954 4.89342 201.211 0.381083 193.548 0.381083H183.156V45.6304H189.614V26.3165H193.48L199.499 45.6418H206.34L199.375 24.9809C203.488 22.691 204.954 18.8756 204.954 13.6686ZM153.932 45.6304H173.194V39.1439H160.401V25.8678H171.548V19.7625H160.401V6.48642H173.194V0.381083H153.932V45.6304ZM132.236 31.972H132.112L126.984 0.381083H120.143L129.328 45.6304H135.031L144.284 0.381083H137.444L132.236 31.972ZM92.5865 45.6304H111.848V39.1439H99.0444V25.8678H110.191V19.7625H99.0444V6.48642H111.837V0.381083H92.5865V45.6304ZM70.4969 20.5933H66.8226V6.48642H70.1809C74.9378 6.48642 75.6929 8.96632 75.6929 13.545C75.6814 18.0459 74.9941 20.5933 70.4969 20.5933ZM82.1508 13.6686C82.1508 4.89342 78.4087 0.381083 70.7452 0.381083H60.3532V45.6304H66.8111V26.3165H70.6774L76.6951 45.6418H83.5369L76.571 24.9809C80.697 22.691 82.1508 18.8756 82.1508 13.6686ZM43.5045 34.9578C43.5045 38.0774 41.4748 39.5365 39.1314 39.5365C36.7868 39.5365 34.7583 38.0774 34.7583 34.9578V11.0537C34.7583 7.93407 36.7868 6.47497 39.1314 6.47497C41.4748 6.47497 43.5045 7.93407 43.5045 11.0537V34.9578ZM39.1314 0C33.8676 0 28.3004 3.68037 28.3004 11.0537V34.9463C28.3004 42.3196 33.8791 46 39.1314 46C44.394 46 49.9624 42.3196 49.9624 34.9463V11.0537C49.9624 3.68037 44.394 0 39.1314 0ZM0 45.6304H6.45792V26.3165H17.605V20.2111H6.45792V6.48642H19.2496V0.381083H0V45.6304Z" fill="#373535"/>
</g>
<defs>
<clipPath id="clip0_23_992">
<rect width="275" height="46" fill="white"/>
</clipPath>
</defs>
</svg>
