<svg width="29" height="29" viewBox="0 0 29 29" fill="none" xmlns="http://www.w3.org/2000/svg">
<path d="M26.9698 8.66386C26.8236 8.09145 26.5978 7.54236 26.2992 7.0326C26.0123 6.50232 25.6455 6.01937 25.2117 5.60073C24.5827 4.97385 23.8378 4.47522 23.0186 4.1326C21.3695 3.4558 19.5202 3.4558 17.8711 4.1326C17.0967 4.46037 16.3853 4.92036 15.7686 5.49198L15.6779 5.60073L14.4998 6.77885L13.3217 5.60073L13.2311 5.49198C12.6144 4.92036 11.9029 4.46037 11.1286 4.1326C9.47947 3.4558 7.63016 3.4558 5.98106 4.1326C5.16179 4.47522 4.41693 4.97385 3.78794 5.60073C2.92766 6.4378 2.31868 7.49881 2.02982 8.66386C1.87614 9.25549 1.80298 9.86516 1.81232 10.4764C1.81232 11.0509 1.88482 11.6237 2.02982 12.1801C2.18176 12.7421 2.40084 13.2837 2.68232 13.7932C2.9863 14.3171 3.35805 14.7985 3.78794 15.2251L14.4998 25.937L25.2117 15.2251C25.6412 14.8028 26.0092 14.3189 26.2992 13.7932C26.8879 12.7875 27.1947 11.6417 27.1873 10.4764C27.1967 9.86515 27.1236 9.25548 26.9698 8.66386ZM25.1573 11.6182C24.9402 12.4464 24.5089 13.2028 23.9067 13.8114L14.4636 23.2364L5.02044 13.8114C4.71272 13.5014 4.44482 13.1544 4.22294 12.7782C4.01415 12.4061 3.8499 12.0107 3.73357 11.6001C3.64069 11.1896 3.59208 10.7703 3.58857 10.3495C3.59102 9.91659 3.63963 9.48519 3.73357 9.0626C3.84649 8.65088 4.01091 8.25504 4.22294 7.88448C4.44044 7.50385 4.70869 7.15948 5.02044 6.85135C5.48606 6.39197 6.03308 6.02319 6.63356 5.76385C7.84361 5.27978 9.19352 5.27978 10.4036 5.76385C11.0017 6.01217 11.5418 6.37648 11.9986 6.83323L14.4636 9.31635L16.9286 6.83323C17.385 6.37567 17.9269 6.01232 18.5236 5.76385C19.7336 5.27978 21.0835 5.27978 22.2936 5.76385C22.8935 6.02304 23.4409 6.39279 23.9067 6.85135C24.2221 7.15042 24.4867 7.49842 24.6861 7.88448C25.1059 8.62482 25.3246 9.46215 25.3204 10.3132C25.3451 10.7512 25.3085 11.1904 25.2117 11.6182H25.1573Z" fill="black"/>
</svg>
