<svg width="29" height="29" viewBox="0 0 29 29" fill="none" xmlns="http://www.w3.org/2000/svg">
<path d="M10.7383 25.7778C11.7393 25.7778 12.5508 24.9663 12.5508 23.9653C12.5508 22.9643 11.7393 22.1528 10.7383 22.1528C9.73727 22.1528 8.92578 22.9643 8.92578 23.9653C8.92578 24.9663 9.73727 25.7778 10.7383 25.7778Z" fill="#1D1D1D"/>
<path d="M21.75 25.7778C22.751 25.7778 23.5625 24.9663 23.5625 23.9653C23.5625 22.9643 22.751 22.1528 21.75 22.1528C20.749 22.1528 19.9375 22.9643 19.9375 23.9653C19.9375 24.9663 20.749 25.7778 21.75 25.7778Z" fill="#1D1D1D"/>
<path d="M26.648 4.32567C26.573 4.23327 26.4785 4.15861 26.3713 4.10708C26.264 4.05554 26.1467 4.0284 26.0277 4.02762H9.25605L9.77967 5.63873H24.9724L22.8216 15.3054H10.7383L7.05689 3.64901C7.01707 3.52532 6.94792 3.4131 6.85534 3.32193C6.76276 3.23075 6.6495 3.16332 6.52522 3.1254L3.22244 2.1104C3.12089 2.07919 3.01418 2.06829 2.90841 2.07832C2.80264 2.08835 2.69989 2.11912 2.60601 2.16886C2.41642 2.26933 2.2745 2.44099 2.21147 2.64609C2.14845 2.85119 2.16948 3.07293 2.26994 3.26252C2.3704 3.45212 2.54207 3.59404 2.74717 3.65706L5.63911 4.54317L9.33661 16.2237L8.0155 17.3032L7.91078 17.4079C7.58399 17.7845 7.39877 18.2632 7.387 18.7617C7.37524 19.2602 7.53768 19.7471 7.84633 20.1387C8.06589 20.4057 8.3449 20.6177 8.66102 20.7575C8.97715 20.8974 9.32162 20.9614 9.66689 20.9443H23.1116C23.3253 20.9443 23.5302 20.8594 23.6812 20.7083C23.8323 20.5573 23.9172 20.3524 23.9172 20.1387C23.9172 19.9251 23.8323 19.7202 23.6812 19.5691C23.5302 19.418 23.3253 19.3332 23.1116 19.3332H9.538C9.44524 19.33 9.35486 19.303 9.2756 19.2547C9.19633 19.2064 9.13086 19.1385 9.08551 19.0575C9.04016 18.9765 9.01646 18.8852 9.0167 18.7924C9.01694 18.6995 9.04112 18.6084 9.08689 18.5276L11.0283 16.9165H23.4661C23.6523 16.9211 23.8343 16.8609 23.9812 16.7464C24.1281 16.6318 24.2307 16.4699 24.2716 16.2882L26.8252 5.0104C26.8497 4.8903 26.8465 4.7662 26.8158 4.64754C26.7851 4.52889 26.7277 4.4188 26.648 4.32567Z" fill="#1D1D1D"/>
</svg>
