<svg width="28" height="28" viewBox="0 0 28 28" fill="none" xmlns="http://www.w3.org/2000/svg">
<path fill-rule="evenodd" clip-rule="evenodd" d="M8.70949 1.24375C10.078 1.18075 10.5143 1.16675 14.0003 1.16675C17.4863 1.16675 17.9227 1.18191 19.29 1.24375C20.6573 1.30558 21.5907 1.52375 22.4073 1.83991C23.2625 2.16308 24.0383 2.66825 24.68 3.32158C25.3333 3.96208 25.8373 4.73675 26.1593 5.59308C26.4767 6.40975 26.6937 7.34308 26.7567 8.70808C26.8197 10.0789 26.8337 10.5152 26.8337 14.0001C26.8337 17.4861 26.8185 17.9224 26.7567 19.2909C26.6948 20.6559 26.4767 21.5892 26.1593 22.4059C25.8373 23.2624 25.3325 24.0383 24.68 24.6797C24.0383 25.3331 23.2625 25.8371 22.4073 26.1591C21.5907 26.4764 20.6573 26.6934 19.2923 26.7564C17.9227 26.8194 17.4863 26.8334 14.0003 26.8334C10.5143 26.8334 10.078 26.8182 8.70949 26.7564C7.34449 26.6946 6.41116 26.4764 5.59449 26.1591C4.73807 25.837 3.96212 25.3322 3.32066 24.6797C2.66777 24.0389 2.16253 23.2633 1.84016 22.4071C1.52399 21.5904 1.30699 20.6571 1.24399 19.2921C1.18099 17.9212 1.16699 17.4849 1.16699 14.0001C1.16699 10.5141 1.18216 10.0777 1.24399 8.71041C1.30583 7.34308 1.52399 6.40975 1.84016 5.59308C2.163 4.73684 2.66863 3.96128 3.32183 3.32041C3.96237 2.66767 4.73754 2.16243 5.59333 1.83991C6.40999 1.52375 7.34333 1.30675 8.70833 1.24375H8.70949ZM19.1862 3.55375C17.8328 3.49191 17.4268 3.47908 14.0003 3.47908C10.5738 3.47908 10.1678 3.49191 8.81449 3.55375C7.56266 3.61091 6.88366 3.81975 6.43099 3.99591C5.83249 4.22925 5.40433 4.50575 4.95516 4.95491C4.52938 5.36914 4.2017 5.87341 3.99616 6.43075C3.81999 6.88341 3.61116 7.56241 3.55399 8.81425C3.49216 10.1676 3.47933 10.5736 3.47933 14.0001C3.47933 17.4266 3.49216 17.8326 3.55399 19.1859C3.61116 20.4377 3.81999 21.1167 3.99616 21.5694C4.20149 22.1259 4.52933 22.6311 4.95516 23.0452C5.36933 23.4711 5.87449 23.7989 6.43099 24.0042C6.88366 24.1804 7.56266 24.3892 8.81449 24.4464C10.1678 24.5082 10.5727 24.5211 14.0003 24.5211C17.428 24.5211 17.8328 24.5082 19.1862 24.4464C20.438 24.3892 21.117 24.1804 21.5697 24.0042C22.1682 23.7709 22.5963 23.4944 23.0455 23.0452C23.4713 22.6311 23.7992 22.1259 24.0045 21.5694C24.1807 21.1167 24.3895 20.4377 24.4467 19.1859C24.5085 17.8326 24.5213 17.4266 24.5213 14.0001C24.5213 10.5736 24.5085 10.1676 24.4467 8.81425C24.3895 7.56241 24.1807 6.88341 24.0045 6.43075C23.7712 5.83225 23.4947 5.40408 23.0455 4.95491C22.6312 4.52916 22.127 4.20149 21.5697 3.99591C21.117 3.81975 20.438 3.61091 19.1862 3.55375ZM12.3612 17.9562C13.2766 18.3373 14.2959 18.3887 15.2451 18.1018C16.1942 17.8148 17.0143 17.2071 17.5652 16.3827C18.1161 15.5582 18.3637 14.5681 18.2657 13.5814C18.1677 12.5946 17.7302 11.6725 17.0278 10.9726C16.5801 10.5251 16.0387 10.1825 15.4427 9.96942C14.8467 9.75631 14.2108 9.678 13.5809 9.74013C12.951 9.80226 12.3427 10.0033 11.7998 10.3287C11.2569 10.6542 10.7929 11.0959 10.4412 11.6222C10.0895 12.1485 9.85888 12.7463 9.76593 13.3724C9.67298 13.9985 9.72 14.6374 9.90362 15.2432C10.0872 15.8489 10.4029 16.4065 10.8278 16.8756C11.2528 17.3447 11.7765 17.7138 12.3612 17.9562ZM9.33599 9.33575C9.94852 8.72322 10.6757 8.23733 11.476 7.90584C12.2763 7.57434 13.1341 7.40372 14.0003 7.40372C14.8666 7.40372 15.7243 7.57434 16.5246 7.90584C17.325 8.23733 18.0521 8.72322 18.6647 9.33575C19.2772 9.94828 19.7631 10.6755 20.0946 11.4758C20.4261 12.2761 20.5967 13.1338 20.5967 14.0001C20.5967 14.8663 20.4261 15.7241 20.0946 16.5244C19.7631 17.3247 19.2772 18.0519 18.6647 18.6644C17.4276 19.9015 15.7498 20.5964 14.0003 20.5964C12.2509 20.5964 10.573 19.9015 9.33599 18.6644C8.09893 17.4274 7.40396 15.7495 7.40396 14.0001C7.40396 12.2506 8.09893 10.5728 9.33599 9.33575ZM22.0597 8.38608C22.2114 8.2429 22.333 8.07071 22.417 7.87972C22.5011 7.68873 22.5459 7.48281 22.549 7.27417C22.552 7.06552 22.5132 6.85839 22.4347 6.66503C22.3563 6.47167 22.2398 6.29601 22.0923 6.14846C21.9447 6.00091 21.7691 5.88446 21.5757 5.80602C21.3824 5.72757 21.1752 5.68872 20.9666 5.69176C20.7579 5.6948 20.552 5.73968 20.361 5.82373C20.17 5.90778 19.9978 6.02929 19.8547 6.18108C19.5762 6.47628 19.4237 6.86839 19.4296 7.27417C19.4356 7.67994 19.5994 8.06744 19.8863 8.3544C20.1733 8.64136 20.5608 8.80518 20.9666 8.8111C21.3723 8.81701 21.7645 8.66455 22.0597 8.38608Z" fill="white"/>
</svg>
