<svg width="56" height="56" viewBox="0 0 56 56" fill="none" xmlns="http://www.w3.org/2000/svg">
<path d="M25.7343 5.92613C26.4274 5.54122 27.2072 5.33923 28 5.33923C28.7928 5.33923 29.5726 5.54122 30.2657 5.92613L47.8007 15.6655C48.1642 15.8676 48.4671 16.1633 48.678 16.5219C48.8888 16.8804 49 17.2888 49 17.7048V36.9198C48.9998 37.752 48.7771 38.569 48.3549 39.2861C47.9328 40.0032 47.3265 40.5944 46.599 40.9985L30.2657 50.0751C29.5726 50.46 28.7928 50.662 28 50.662C27.2072 50.662 26.4274 50.46 25.7343 50.0751L9.401 40.9985C8.67383 40.5946 8.06781 40.0038 7.64567 39.2871C7.22353 38.5704 7.00061 37.7539 7 36.9221V17.7048C6.99998 17.2888 7.11117 16.8804 7.32204 16.5219C7.5329 16.1633 7.83579 15.8676 8.19933 15.6655L25.7367 5.92613H25.7343Z" stroke="#1C1D1D" stroke-width="3" stroke-linecap="round" stroke-linejoin="round"/>
<path d="M28 27.9999V51.3333M7 16.3333L28 27.9999L7 16.3333ZM28 27.9999L49 16.3333L28 27.9999Z" stroke="#1C1D1D" stroke-width="3" stroke-linejoin="round"/>
<path d="M17.5 22.1667L38.5 10.5" stroke="#1C1D1D" stroke-width="3" stroke-linecap="round" stroke-linejoin="round"/>
<path d="M14 28.7642L21 32.6655" stroke="#1C1D1D" stroke-width="3" stroke-linecap="round" stroke-linejoin="round"/>
</svg>
