<svg width="47" height="47" viewBox="0 0 47 47" fill="none" xmlns="http://www.w3.org/2000/svg">
<path d="M44.0866 23.4991L46.684 19.0101C46.9962 18.47 47.0811 17.828 46.92 17.2254C46.759 16.6227 46.3652 16.1086 45.8253 15.7962L41.3315 13.1988V8.02278C41.3315 7.3988 41.0836 6.80037 40.6424 6.35914C40.2012 5.91792 39.6028 5.67004 38.9788 5.67004H33.8051L31.21 1.17866C30.8966 0.639684 30.3836 0.245809 29.7819 0.0822812C29.4835 0.00138433 29.172 -0.0194753 28.8655 0.0209113C28.5589 0.061298 28.2635 0.162128 27.9962 0.317556L23.5024 2.91498L19.0087 0.315203C18.4683 0.0032237 17.8262 -0.0813211 17.2235 0.0801659C16.6207 0.241653 16.1069 0.635945 15.7949 1.17631L13.1974 5.67004H8.02376C7.39978 5.67004 6.80135 5.91792 6.36013 6.35914C5.9189 6.80037 5.67102 7.3988 5.67102 8.02278V13.1965L1.17729 15.7939C0.909152 15.9481 0.674134 16.1538 0.485735 16.3992C0.297337 16.6445 0.159273 16.9246 0.0794745 17.2235C-0.000323708 17.5224 -0.020283 17.834 0.0207433 18.1406C0.0617696 18.4472 0.162973 18.7427 0.318539 19.0101L2.91596 23.4991L0.318539 27.9881C0.0079505 28.5287 -0.0763171 29.1702 0.0841079 29.7727C0.244533 30.3752 0.636639 30.8898 1.17494 31.2043L5.66867 33.8018V38.9754C5.66867 39.5994 5.91655 40.1978 6.35777 40.6391C6.799 41.0803 7.39743 41.3282 8.02141 41.3282H13.1974L15.7949 45.8219C16.0032 46.178 16.3006 46.4737 16.6578 46.6799C17.015 46.8862 17.4198 46.9959 17.8323 46.9983C18.2417 46.9983 18.6487 46.8901 19.0111 46.6807L23.5001 44.0832L27.9938 46.6807C28.5341 46.9922 29.1758 47.0768 29.7783 46.9158C30.3808 46.7548 30.8948 46.3614 31.2077 45.8219L33.8027 41.3282H38.9764C39.6004 41.3282 40.1988 41.0803 40.6401 40.6391C41.0813 40.1978 41.3292 39.5994 41.3292 38.9754V33.8018L45.8229 31.2043C46.0906 31.0496 46.3251 30.8437 46.5132 30.5983C46.7012 30.3529 46.8391 30.0729 46.9188 29.7742C46.9986 29.4755 47.0187 29.164 46.978 28.8576C46.9373 28.5511 46.8366 28.2557 46.6816 27.9881L44.0866 23.4991ZM17.6182 11.7119C18.5545 11.7122 19.4523 12.0844 20.1142 12.7467C20.776 13.409 21.1477 14.3071 21.1474 15.2433C21.147 16.1796 20.7748 17.0775 20.1125 17.7393C19.4502 18.4011 18.5522 18.7728 17.6159 18.7725C16.6796 18.7721 15.7818 18.3999 15.1199 17.7376C14.4581 17.0753 14.0865 16.1773 14.0868 15.241C14.0871 14.3047 14.4593 13.4069 15.1216 12.745C15.7839 12.0832 16.6819 11.7116 17.6182 11.7119ZM18.3241 34.2982L14.5597 31.4773L28.6761 12.6553L32.4405 15.4763L18.3241 34.2982ZM29.3819 35.2393C28.9183 35.2391 28.4593 35.1477 28.0311 34.9701C27.6028 34.7926 27.2137 34.5324 26.886 34.2045C26.5583 33.8765 26.2984 33.4873 26.1211 33.0589C25.9438 32.6305 25.8527 32.1714 25.8528 31.7078C25.853 31.2442 25.9445 30.7852 26.122 30.3569C26.2996 29.9287 26.5597 29.5396 26.8877 29.2119C27.2156 28.8842 27.6048 28.6243 28.0332 28.447C28.4616 28.2697 28.9207 28.1786 29.3843 28.1787C30.3206 28.179 31.2184 28.5513 31.8802 29.2135C32.5421 29.8758 32.9137 30.7739 32.9134 31.7102C32.9131 32.6465 32.5409 33.5443 31.8786 34.2061C31.2163 34.868 30.3182 35.2396 29.3819 35.2393Z" fill="#1C1D1D"/>
</svg>
